<mxfile host="app.diagrams.net" agent="Mozilla/5.0 (Macintosh; Intel Mac OS X 10_15_7) AppleWebKit/605.1.15 (KHTML, like Gecko) Version/16.5.1 Safari/605.1.15" version="24.8.6">
  <diagram name="Page-1" id="kuL3mddHvJ-c9CjzXcR1">
    <mxGraphModel dx="2484" dy="1654" grid="0" gridSize="10" guides="1" tooltips="1" connect="1" arrows="1" fold="1" page="1" pageScale="1" pageWidth="1700" pageHeight="1100" math="0" shadow="0">
      <root>
        <mxCell id="0" />
        <mxCell id="1" parent="0" />
        <mxCell id="B85vc1KlHJfcwgaFiPgZ-22" value="" style="rounded=0;whiteSpace=wrap;html=1;rotation=90;" vertex="1" parent="1">
          <mxGeometry x="-162.37" y="264.38" width="1381.5" height="987.75" as="geometry" />
        </mxCell>
        <mxCell id="B85vc1KlHJfcwgaFiPgZ-5" value="&lt;h1&gt;&lt;br&gt;&lt;/h1&gt;" style="rounded=1;whiteSpace=wrap;html=1;fillColor=#f5f5f5;fontColor=#333333;strokeColor=#666666;rotation=90;" vertex="1" parent="1">
          <mxGeometry x="-18.5" y="291.5" width="675" height="406" as="geometry" />
        </mxCell>
        <mxCell id="B85vc1KlHJfcwgaFiPgZ-7" value="&lt;h1&gt;&lt;font style=&quot;font-size: 27px;&quot; color=&quot;#000000&quot;&gt;Views&lt;/font&gt;&lt;/h1&gt;" style="text;strokeColor=none;align=center;fillColor=none;html=1;verticalAlign=middle;whiteSpace=wrap;rounded=0;fontColor=#FFFFFF;" vertex="1" parent="1">
          <mxGeometry x="231" y="157" width="176" height="46" as="geometry" />
        </mxCell>
        <mxCell id="B85vc1KlHJfcwgaFiPgZ-9" value="&lt;font style=&quot;font-size: 20px;&quot;&gt;Login&lt;/font&gt;" style="rounded=1;whiteSpace=wrap;html=1;" vertex="1" parent="1">
          <mxGeometry x="179.5" y="214" width="279" height="43" as="geometry" />
        </mxCell>
        <mxCell id="B85vc1KlHJfcwgaFiPgZ-10" value="&lt;font style=&quot;font-size: 20px;&quot;&gt;Sign Up page&lt;/font&gt;" style="rounded=1;whiteSpace=wrap;html=1;" vertex="1" parent="1">
          <mxGeometry x="179.5" y="268" width="279" height="43" as="geometry" />
        </mxCell>
        <mxCell id="B85vc1KlHJfcwgaFiPgZ-11" value="&lt;font style=&quot;font-size: 20px;&quot;&gt;Forgot Password&lt;/font&gt;" style="rounded=1;whiteSpace=wrap;html=1;" vertex="1" parent="1">
          <mxGeometry x="179.5" y="322" width="279" height="43" as="geometry" />
        </mxCell>
        <mxCell id="B85vc1KlHJfcwgaFiPgZ-12" value="&lt;font style=&quot;font-size: 20px;&quot;&gt;Profile Page&lt;/font&gt;" style="rounded=1;whiteSpace=wrap;html=1;" vertex="1" parent="1">
          <mxGeometry x="179.5" y="376" width="279" height="43" as="geometry" />
        </mxCell>
        <mxCell id="B85vc1KlHJfcwgaFiPgZ-13" value="&lt;font style=&quot;font-size: 20px;&quot;&gt;Tasks&lt;/font&gt;" style="rounded=1;whiteSpace=wrap;html=1;" vertex="1" parent="1">
          <mxGeometry x="179.5" y="430" width="279" height="43" as="geometry" />
        </mxCell>
        <mxCell id="B85vc1KlHJfcwgaFiPgZ-14" value="&lt;font style=&quot;font-size: 20px;&quot;&gt;projects&lt;/font&gt;" style="rounded=1;whiteSpace=wrap;html=1;" vertex="1" parent="1">
          <mxGeometry x="179.5" y="484" width="279" height="43" as="geometry" />
        </mxCell>
        <mxCell id="B85vc1KlHJfcwgaFiPgZ-15" value="&lt;font style=&quot;font-size: 20px;&quot;&gt;Messages&lt;/font&gt;" style="rounded=1;whiteSpace=wrap;html=1;" vertex="1" parent="1">
          <mxGeometry x="179.5" y="538" width="279" height="43" as="geometry" />
        </mxCell>
        <mxCell id="B85vc1KlHJfcwgaFiPgZ-16" value="&lt;font style=&quot;font-size: 20px;&quot;&gt;Self Service&lt;/font&gt;" style="rounded=1;whiteSpace=wrap;html=1;" vertex="1" parent="1">
          <mxGeometry x="179.5" y="592" width="279" height="43" as="geometry" />
        </mxCell>
        <mxCell id="B85vc1KlHJfcwgaFiPgZ-17" value="&lt;font style=&quot;font-size: 20px;&quot;&gt;Pay Details&lt;/font&gt;" style="rounded=1;whiteSpace=wrap;html=1;" vertex="1" parent="1">
          <mxGeometry x="179.5" y="646" width="279" height="43" as="geometry" />
        </mxCell>
        <mxCell id="B85vc1KlHJfcwgaFiPgZ-18" value="&lt;span style=&quot;font-size: 20px;&quot;&gt;Employee Attendance&lt;/span&gt;" style="rounded=1;whiteSpace=wrap;html=1;" vertex="1" parent="1">
          <mxGeometry x="179.5" y="700" width="279" height="43" as="geometry" />
        </mxCell>
        <mxCell id="B85vc1KlHJfcwgaFiPgZ-19" value="&lt;font style=&quot;font-size: 20px;&quot;&gt;Employee Status&lt;/font&gt;" style="rounded=1;whiteSpace=wrap;html=1;" vertex="1" parent="1">
          <mxGeometry x="179.5" y="754" width="279" height="43" as="geometry" />
        </mxCell>
        <mxCell id="B85vc1KlHJfcwgaFiPgZ-21" style="edgeStyle=orthogonalEdgeStyle;rounded=0;orthogonalLoop=1;jettySize=auto;html=1;exitX=1;exitY=0.5;exitDx=0;exitDy=0;strokeColor=#23445D;" edge="1" parent="1" source="B85vc1KlHJfcwgaFiPgZ-5" target="B85vc1KlHJfcwgaFiPgZ-5">
          <mxGeometry relative="1" as="geometry" />
        </mxCell>
        <mxCell id="B85vc1KlHJfcwgaFiPgZ-23" value="&lt;h1&gt;&lt;font style=&quot;font-size: 40px;&quot; face=&quot;Times New Roman&quot; color=&quot;#000000&quot;&gt;FRONTEND&lt;/font&gt;&lt;/h1&gt;" style="text;strokeColor=none;align=center;fillColor=none;html=1;verticalAlign=middle;whiteSpace=wrap;rounded=0;fontColor=#FFFFFF;" vertex="1" parent="1">
          <mxGeometry x="498.38" y="86" width="60" height="30" as="geometry" />
        </mxCell>
        <mxCell id="B85vc1KlHJfcwgaFiPgZ-24" value="&lt;h1&gt;&lt;br&gt;&lt;/h1&gt;" style="rounded=1;whiteSpace=wrap;html=1;fillColor=#f5f5f5;fontColor=#333333;strokeColor=#666666;rotation=90;" vertex="1" parent="1">
          <mxGeometry x="715" y="130" width="186" height="387" as="geometry" />
        </mxCell>
        <mxCell id="B85vc1KlHJfcwgaFiPgZ-25" value="&lt;h1&gt;&lt;font style=&quot;font-size: 27px;&quot; color=&quot;#000000&quot;&gt;GUI&lt;/font&gt;&lt;/h1&gt;" style="text;strokeColor=none;align=center;fillColor=none;html=1;verticalAlign=middle;whiteSpace=wrap;rounded=0;fontColor=#FFFFFF;" vertex="1" parent="1">
          <mxGeometry x="720" y="245.5" width="176" height="46" as="geometry" />
        </mxCell>
        <mxCell id="B85vc1KlHJfcwgaFiPgZ-26" value="&lt;font style=&quot;font-size: 20px;&quot;&gt;XML Layout Files&lt;/font&gt;" style="rounded=1;whiteSpace=wrap;html=1;" vertex="1" parent="1">
          <mxGeometry x="668.5" y="295.5" width="279" height="80.5" as="geometry" />
        </mxCell>
        <mxCell id="B85vc1KlHJfcwgaFiPgZ-28" value="" style="endArrow=classic;startArrow=classic;html=1;rounded=0;strokeColor=#0000FF;entryX=0.5;entryY=1;entryDx=0;entryDy=0;exitX=0.25;exitY=0;exitDx=0;exitDy=0;strokeWidth=3;" edge="1" parent="1" source="B85vc1KlHJfcwgaFiPgZ-5" target="B85vc1KlHJfcwgaFiPgZ-24">
          <mxGeometry width="50" height="50" relative="1" as="geometry">
            <mxPoint x="529" y="358" as="sourcePoint" />
            <mxPoint x="579" y="308" as="targetPoint" />
          </mxGeometry>
        </mxCell>
        <mxCell id="B85vc1KlHJfcwgaFiPgZ-29" value="&lt;h1&gt;&lt;br&gt;&lt;/h1&gt;" style="rounded=1;whiteSpace=wrap;html=1;fillColor=#f5f5f5;fontColor=#333333;strokeColor=#666666;rotation=90;" vertex="1" parent="1">
          <mxGeometry x="565.5" y="495" width="382" height="289" as="geometry" />
        </mxCell>
        <mxCell id="B85vc1KlHJfcwgaFiPgZ-30" value="&lt;h1&gt;&lt;font style=&quot;font-size: 27px;&quot; color=&quot;#000000&quot;&gt;Communication&lt;/font&gt;&lt;/h1&gt;" style="text;strokeColor=none;align=center;fillColor=none;html=1;verticalAlign=middle;whiteSpace=wrap;rounded=0;fontColor=#FFFFFF;" vertex="1" parent="1">
          <mxGeometry x="671.5" y="473" width="176" height="46" as="geometry" />
        </mxCell>
        <mxCell id="B85vc1KlHJfcwgaFiPgZ-31" value="" style="rounded=1;whiteSpace=wrap;html=1;" vertex="1" parent="1">
          <mxGeometry x="632.25" y="524" width="254.5" height="263" as="geometry" />
        </mxCell>
        <mxCell id="B85vc1KlHJfcwgaFiPgZ-33" value="&lt;h1&gt;&lt;font style=&quot;font-size: 20px;&quot; color=&quot;#000000&quot;&gt;Volley&lt;/font&gt;&lt;/h1&gt;" style="text;strokeColor=none;align=center;fillColor=none;html=1;verticalAlign=middle;whiteSpace=wrap;rounded=0;fontColor=#FFFFFF;" vertex="1" parent="1">
          <mxGeometry x="671.5" y="543" width="176" height="46" as="geometry" />
        </mxCell>
        <mxCell id="B85vc1KlHJfcwgaFiPgZ-35" value="&lt;font style=&quot;font-size: 20px;&quot;&gt;Request JSON&lt;/font&gt;&lt;div&gt;&lt;font style=&quot;font-size: 20px;&quot;&gt;Object&lt;/font&gt;&lt;/div&gt;" style="rounded=1;whiteSpace=wrap;html=1;" vertex="1" parent="1">
          <mxGeometry x="663.5" y="592" width="192" height="72" as="geometry" />
        </mxCell>
        <mxCell id="B85vc1KlHJfcwgaFiPgZ-36" value="&lt;font style=&quot;font-size: 20px;&quot;&gt;Request JSON&lt;/font&gt;&lt;div&gt;&lt;font style=&quot;font-size: 20px;&quot;&gt;Array&lt;/font&gt;&lt;/div&gt;" style="rounded=1;whiteSpace=wrap;html=1;" vertex="1" parent="1">
          <mxGeometry x="663.5" y="688" width="192" height="72" as="geometry" />
        </mxCell>
        <mxCell id="B85vc1KlHJfcwgaFiPgZ-37" value="&lt;h1&gt;&lt;br&gt;&lt;/h1&gt;" style="rounded=1;whiteSpace=wrap;html=1;fillColor=#f5f5f5;fontColor=#333333;strokeColor=#666666;rotation=-180;" vertex="1" parent="1">
          <mxGeometry x="120" y="912" width="776" height="406" as="geometry" />
        </mxCell>
        <mxCell id="B85vc1KlHJfcwgaFiPgZ-38" value="&lt;h1&gt;&lt;font color=&quot;#000000&quot;&gt;&lt;span style=&quot;caret-color: rgb(0, 0, 0); font-size: 27px;&quot;&gt;Helper Classes&lt;/span&gt;&lt;/font&gt;&lt;/h1&gt;" style="text;strokeColor=none;align=center;fillColor=none;html=1;verticalAlign=middle;whiteSpace=wrap;rounded=0;fontColor=#FFFFFF;" vertex="1" parent="1">
          <mxGeometry x="395" y="927" width="226" height="46" as="geometry" />
        </mxCell>
        <mxCell id="B85vc1KlHJfcwgaFiPgZ-40" value="" style="rounded=1;whiteSpace=wrap;html=1;" vertex="1" parent="1">
          <mxGeometry x="166" y="981" width="320" height="303" as="geometry" />
        </mxCell>
        <mxCell id="B85vc1KlHJfcwgaFiPgZ-41" value="" style="rounded=1;whiteSpace=wrap;html=1;" vertex="1" parent="1">
          <mxGeometry x="535.5" y="981" width="320" height="303" as="geometry" />
        </mxCell>
        <mxCell id="B85vc1KlHJfcwgaFiPgZ-42" value="" style="rounded=0;whiteSpace=wrap;html=1;rotation=90;" vertex="1" parent="1">
          <mxGeometry x="1283.75" y="-91.75" width="662" height="987.75" as="geometry" />
        </mxCell>
        <mxCell id="B85vc1KlHJfcwgaFiPgZ-45" value="&lt;h1&gt;&lt;font face=&quot;Times New Roman&quot; color=&quot;#000000&quot;&gt;&lt;span style=&quot;caret-color: rgb(0, 0, 0); font-size: 40px;&quot;&gt;BACKEND&lt;/span&gt;&lt;/font&gt;&lt;/h1&gt;" style="text;strokeColor=none;align=center;fillColor=none;html=1;verticalAlign=middle;whiteSpace=wrap;rounded=0;fontColor=#FFFFFF;" vertex="1" parent="1">
          <mxGeometry x="1584.75" y="96" width="60" height="30" as="geometry" />
        </mxCell>
        <mxCell id="B85vc1KlHJfcwgaFiPgZ-74" style="edgeStyle=orthogonalEdgeStyle;rounded=0;orthogonalLoop=1;jettySize=auto;html=1;exitX=1;exitY=0.5;exitDx=0;exitDy=0;entryX=0.5;entryY=0;entryDx=0;entryDy=0;strokeColor=#97D077;strokeWidth=4;startArrow=classic;startFill=1;" edge="1" parent="1" source="B85vc1KlHJfcwgaFiPgZ-46" target="B85vc1KlHJfcwgaFiPgZ-53">
          <mxGeometry relative="1" as="geometry" />
        </mxCell>
        <mxCell id="B85vc1KlHJfcwgaFiPgZ-46" value="&lt;h1&gt;&lt;br&gt;&lt;/h1&gt;" style="rounded=1;whiteSpace=wrap;html=1;fillColor=#f5f5f5;fontColor=#333333;strokeColor=#666666;rotation=90;" vertex="1" parent="1">
          <mxGeometry x="1039" y="261" width="577" height="334" as="geometry" />
        </mxCell>
        <mxCell id="B85vc1KlHJfcwgaFiPgZ-47" value="&lt;h1&gt;&lt;font style=&quot;font-size: 27px;&quot; color=&quot;#000000&quot;&gt;Communication&lt;/font&gt;&lt;/h1&gt;" style="text;strokeColor=none;align=center;fillColor=none;html=1;verticalAlign=middle;whiteSpace=wrap;rounded=0;fontColor=#FFFFFF;" vertex="1" parent="1">
          <mxGeometry x="1239.5" y="161" width="176" height="46" as="geometry" />
        </mxCell>
        <mxCell id="B85vc1KlHJfcwgaFiPgZ-48" value="&lt;h1&gt;&lt;br&gt;&lt;/h1&gt;" style="rounded=1;whiteSpace=wrap;html=1;fillColor=#f5f5f5;fontColor=#333333;strokeColor=#666666;rotation=90;" vertex="1" parent="1">
          <mxGeometry x="1736" y="185" width="271" height="334" as="geometry" />
        </mxCell>
        <mxCell id="B85vc1KlHJfcwgaFiPgZ-50" value="&lt;h1&gt;&lt;font style=&quot;font-size: 27px;&quot; color=&quot;#000000&quot;&gt;Controllers&lt;/font&gt;&lt;/h1&gt;" style="text;strokeColor=none;align=center;fillColor=none;html=1;verticalAlign=middle;whiteSpace=wrap;rounded=0;fontColor=#FFFFFF;" vertex="1" parent="1">
          <mxGeometry x="1783.5" y="225" width="176" height="46" as="geometry" />
        </mxCell>
        <mxCell id="B85vc1KlHJfcwgaFiPgZ-51" style="edgeStyle=orthogonalEdgeStyle;rounded=0;orthogonalLoop=1;jettySize=auto;html=1;exitX=0.5;exitY=0;exitDx=0;exitDy=0;entryX=0.372;entryY=0.99;entryDx=0;entryDy=0;entryPerimeter=0;strokeColor=#b85450;fillColor=#f8cecc;startArrow=classic;startFill=1;strokeWidth=4;" edge="1" parent="1" source="B85vc1KlHJfcwgaFiPgZ-29" target="B85vc1KlHJfcwgaFiPgZ-46">
          <mxGeometry relative="1" as="geometry" />
        </mxCell>
        <mxCell id="B85vc1KlHJfcwgaFiPgZ-53" value="" style="shape=datastore;whiteSpace=wrap;html=1;" vertex="1" parent="1">
          <mxGeometry x="1058" y="821" width="1164" height="518" as="geometry" />
        </mxCell>
        <mxCell id="B85vc1KlHJfcwgaFiPgZ-54" value="&lt;h1&gt;&lt;font face=&quot;Times New Roman&quot; color=&quot;#000000&quot;&gt;&lt;span style=&quot;caret-color: rgb(0, 0, 0); font-size: 40px;&quot;&gt;DATABASE&lt;/span&gt;&lt;/font&gt;&lt;/h1&gt;" style="text;strokeColor=none;align=center;fillColor=none;html=1;verticalAlign=middle;whiteSpace=wrap;rounded=0;fontColor=#FFFFFF;" vertex="1" parent="1">
          <mxGeometry x="1610" y="864" width="60" height="30" as="geometry" />
        </mxCell>
        <mxCell id="B85vc1KlHJfcwgaFiPgZ-56" value="&lt;h1&gt;&lt;font color=&quot;#000000&quot;&gt;&lt;span style=&quot;caret-color: rgb(0, 0, 0); font-size: 27px;&quot;&gt;MySQL&lt;/span&gt;&lt;/font&gt;&lt;/h1&gt;" style="text;strokeColor=none;align=center;fillColor=none;html=1;verticalAlign=middle;whiteSpace=wrap;rounded=0;fontColor=#FFFFFF;" vertex="1" parent="1">
          <mxGeometry x="1487" y="947" width="306" height="46" as="geometry" />
        </mxCell>
        <mxCell id="B85vc1KlHJfcwgaFiPgZ-57" value="" style="rounded=0;whiteSpace=wrap;html=1;rotation=-180;" vertex="1" parent="1">
          <mxGeometry x="1066.43" y="1378" width="1147.13" height="304.13" as="geometry" />
        </mxCell>
        <mxCell id="B85vc1KlHJfcwgaFiPgZ-58" value="&lt;h1&gt;&lt;font face=&quot;Times New Roman&quot; color=&quot;#000000&quot;&gt;&lt;span style=&quot;caret-color: rgb(0, 0, 0); font-size: 40px;&quot;&gt;Guide Chart&lt;/span&gt;&lt;/font&gt;&lt;/h1&gt;" style="text;strokeColor=none;align=center;fillColor=none;html=1;verticalAlign=middle;whiteSpace=wrap;rounded=0;fontColor=#FFFFFF;" vertex="1" parent="1">
          <mxGeometry x="1524" y="1406" width="232" height="30" as="geometry" />
        </mxCell>
        <mxCell id="B85vc1KlHJfcwgaFiPgZ-59" value="" style="rounded=0;whiteSpace=wrap;html=1;rotation=-180;" vertex="1" parent="1">
          <mxGeometry x="1078" y="1566" width="337.56" height="88" as="geometry" />
        </mxCell>
        <mxCell id="B85vc1KlHJfcwgaFiPgZ-62" value="" style="rounded=0;whiteSpace=wrap;html=1;rotation=-180;" vertex="1" parent="1">
          <mxGeometry x="1464" y="1564" width="337.56" height="88" as="geometry" />
        </mxCell>
        <mxCell id="B85vc1KlHJfcwgaFiPgZ-63" value="" style="rounded=0;whiteSpace=wrap;html=1;rotation=-180;" vertex="1" parent="1">
          <mxGeometry x="1850" y="1564" width="337.56" height="88" as="geometry" />
        </mxCell>
        <mxCell id="B85vc1KlHJfcwgaFiPgZ-65" value="&lt;font style=&quot;font-size: 16px;&quot; color=&quot;#000000&quot;&gt;&lt;b&gt;HTTP Connection&lt;/b&gt;&lt;/font&gt;" style="text;strokeColor=none;align=center;fillColor=none;html=1;verticalAlign=middle;whiteSpace=wrap;rounded=0;fontColor=#FFFFFF;" vertex="1" parent="1">
          <mxGeometry x="1120.78" y="1570" width="252" height="30" as="geometry" />
        </mxCell>
        <mxCell id="B85vc1KlHJfcwgaFiPgZ-66" value="&lt;font style=&quot;font-size: 16px;&quot; color=&quot;#000000&quot;&gt;&lt;b&gt;General Relationship&lt;/b&gt;&lt;/font&gt;" style="text;strokeColor=none;align=center;fillColor=none;html=1;verticalAlign=middle;whiteSpace=wrap;rounded=0;fontColor=#FFFFFF;" vertex="1" parent="1">
          <mxGeometry x="1892.78" y="1570" width="252" height="30" as="geometry" />
        </mxCell>
        <mxCell id="B85vc1KlHJfcwgaFiPgZ-67" value="&lt;font style=&quot;font-size: 16px;&quot; color=&quot;#000000&quot;&gt;&lt;b&gt;JDBC Connection&lt;/b&gt;&lt;/font&gt;" style="text;strokeColor=none;align=center;fillColor=none;html=1;verticalAlign=middle;whiteSpace=wrap;rounded=0;fontColor=#FFFFFF;" vertex="1" parent="1">
          <mxGeometry x="1514" y="1570" width="252" height="30" as="geometry" />
        </mxCell>
        <mxCell id="B85vc1KlHJfcwgaFiPgZ-69" value="" style="shape=flexArrow;endArrow=classic;startArrow=classic;html=1;rounded=0;strokeColor=#b85450;width=20;endSize=2.6;entryX=0;entryY=0.25;entryDx=0;entryDy=0;fillColor=#CC0000;" edge="1" parent="1">
          <mxGeometry width="100" height="100" relative="1" as="geometry">
            <mxPoint x="1095" y="1625" as="sourcePoint" />
            <mxPoint x="1391.4300000000003" y="1622" as="targetPoint" />
          </mxGeometry>
        </mxCell>
        <mxCell id="B85vc1KlHJfcwgaFiPgZ-70" value="" style="shape=flexArrow;endArrow=classic;startArrow=classic;html=1;rounded=0;strokeColor=none;width=20;endSize=2.6;entryX=0;entryY=0.25;entryDx=0;entryDy=0;fillColor=#0000FF;" edge="1" parent="1">
          <mxGeometry width="100" height="100" relative="1" as="geometry">
            <mxPoint x="1870.56" y="1629" as="sourcePoint" />
            <mxPoint x="2166.9900000000002" y="1626" as="targetPoint" />
          </mxGeometry>
        </mxCell>
        <mxCell id="B85vc1KlHJfcwgaFiPgZ-71" value="" style="shape=flexArrow;endArrow=classic;startArrow=classic;html=1;rounded=0;strokeColor=none;width=20;endSize=2.6;entryX=0;entryY=0.25;entryDx=0;entryDy=0;fillColor=#97D077;" edge="1" parent="1">
          <mxGeometry width="100" height="100" relative="1" as="geometry">
            <mxPoint x="1484.56" y="1627" as="sourcePoint" />
            <mxPoint x="1780.9900000000002" y="1624" as="targetPoint" />
          </mxGeometry>
        </mxCell>
        <mxCell id="B85vc1KlHJfcwgaFiPgZ-72" value="" style="endArrow=classic;startArrow=classic;html=1;rounded=0;strokeColor=#0000FF;entryX=0.988;entryY=0.682;entryDx=0;entryDy=0;exitX=0.25;exitY=1;exitDx=0;exitDy=0;strokeWidth=3;entryPerimeter=0;" edge="1" parent="1" source="B85vc1KlHJfcwgaFiPgZ-37" target="B85vc1KlHJfcwgaFiPgZ-29">
          <mxGeometry width="50" height="50" relative="1" as="geometry">
            <mxPoint x="684" y="868" as="sourcePoint" />
            <mxPoint x="777" y="866" as="targetPoint" />
          </mxGeometry>
        </mxCell>
        <mxCell id="B85vc1KlHJfcwgaFiPgZ-73" value="" style="endArrow=classic;startArrow=classic;html=1;rounded=0;strokeColor=#0000FF;entryX=1;entryY=0.532;entryDx=0;entryDy=0;exitX=0.768;exitY=0.995;exitDx=0;exitDy=0;strokeWidth=3;exitPerimeter=0;entryPerimeter=0;" edge="1" parent="1" source="B85vc1KlHJfcwgaFiPgZ-37" target="B85vc1KlHJfcwgaFiPgZ-5">
          <mxGeometry width="50" height="50" relative="1" as="geometry">
            <mxPoint x="272.5" y="856" as="sourcePoint" />
            <mxPoint x="365.5" y="854" as="targetPoint" />
          </mxGeometry>
        </mxCell>
      </root>
    </mxGraphModel>
  </diagram>
</mxfile>
